<svg width="24" height="24" viewBox="0 0 24 24" fill="none" xmlns="http://www.w3.org/2000/svg">
<g clip-path="url(#clip0_1915_109398)">
<g filter="url(#filter0_i_1915_109398)">
<path d="M2.4314 8.17329L7.78748 9.82602C7.98863 9.88809 8.20697 9.81519 8.33048 9.64473L12.0599 4.49756L15.7697 9.66046C15.8867 9.82325 16.0908 9.8987 16.2855 9.85115L21.5582 8.56364L19.5147 17.9169C19.1695 19.497 17.7704 20.6234 16.1531 20.6234H7.60226C5.94393 20.6234 4.52151 19.4405 4.21905 17.81L2.4314 8.17329Z" fill="url(#paint0_linear_1915_109398)"/>
</g>
<path d="M2.4314 8.17329L7.78748 9.82602C7.98863 9.88809 8.20697 9.81519 8.33048 9.64473L12.0599 4.49756L15.7697 9.66046C15.8867 9.82325 16.0908 9.8987 16.2855 9.85115L21.5582 8.56364L19.5147 17.9169C19.1695 19.497 17.7704 20.6234 16.1531 20.6234H7.60226C5.94393 20.6234 4.52151 19.4405 4.21905 17.81L2.4314 8.17329Z" stroke="#FFE204" stroke-width="0.8"/>
<path d="M20.352 10.4768C18.5634 11.6571 15.4988 13.0416 12.3943 12.2655C10.3501 11.7544 8.61007 9.71023 8.5979 9.49121" stroke="#FFE204" stroke-width="0.245781"/>
<circle cx="11.9997" cy="4.29899" r="2.29499" fill="url(#paint1_linear_1915_109398)" stroke="#FFE204" stroke-width="0.8"/>
<circle cx="21.4331" cy="8.24001" r="1.93718" fill="url(#paint2_linear_1915_109398)" stroke="#FFE204" stroke-width="0.8"/>
<circle cx="2.56667" cy="8.24001" r="1.93718" fill="url(#paint3_linear_1915_109398)" stroke="#FFE204" stroke-width="0.8"/>
<g filter="url(#filter1_d_1915_109398)">
<path d="M9.96675 12.5553C10.0342 12.4255 10.1199 12.3295 10.2237 12.2672C10.3326 12.1998 10.4468 12.166 10.5662 12.166C10.7427 12.166 10.8984 12.2231 11.0333 12.3373C11.1682 12.4515 11.2357 12.5916 11.2357 12.7577C11.2357 12.8719 11.2072 12.9782 11.1501 13.0769L8.86128 17.3275C8.78862 17.4676 8.67963 17.5766 8.53431 17.6544C8.38899 17.7271 8.23589 17.7634 8.075 17.7634C7.9193 17.7634 7.77917 17.7271 7.65461 17.6544C7.53005 17.5818 7.44182 17.4754 7.38992 17.3352L5.78621 13.0769C5.75507 12.999 5.7395 12.9238 5.7395 12.8511C5.7395 12.6643 5.81995 12.5034 5.98084 12.3684C6.14692 12.2335 6.32857 12.166 6.52579 12.166C6.65035 12.166 6.75933 12.1972 6.85275 12.2594C6.94617 12.3217 7.01624 12.4177 7.06295 12.5475L8.25405 15.9262L9.96675 12.5553Z" fill="#FFF8E7"/>
<path d="M12.0855 17.7556C11.8624 17.7556 11.6911 17.6934 11.5717 17.5688C11.4576 17.439 11.4108 17.2652 11.4316 17.0472L11.7586 12.89C11.7793 12.672 11.8572 12.5008 11.9921 12.3762C12.1323 12.2465 12.3113 12.1816 12.5293 12.1816C12.7525 12.1816 12.9237 12.2465 13.0431 12.3762C13.1625 12.5008 13.2118 12.6694 13.191 12.8822L12.864 17.0394C12.8433 17.2574 12.7628 17.4313 12.6227 17.561C12.4878 17.6908 12.3087 17.7556 12.0855 17.7556Z" fill="#FFF8E7"/>
<path d="M16.6828 12.2205C17.2692 12.2205 17.7259 12.3684 18.0529 12.6643C18.3851 12.9549 18.5512 13.3545 18.5512 13.8631C18.5512 14.46 18.3773 14.9193 18.0296 15.2411C17.6818 15.5629 17.181 15.7238 16.5271 15.7238H15.2737L15.1725 17.0394C15.1517 17.2626 15.0713 17.439 14.9311 17.5688C14.7962 17.6934 14.6171 17.7556 14.394 17.7556C14.176 17.7556 14.0073 17.6934 13.8879 17.5688C13.7686 17.439 13.7193 17.2652 13.74 17.0472L14.067 12.8822C14.0878 12.6694 14.1604 12.506 14.285 12.3918C14.4095 12.2776 14.5756 12.2205 14.7832 12.2205H16.6828ZM16.3869 14.6494C16.9423 14.6494 17.2199 14.4133 17.2199 13.941C17.2199 13.723 17.1576 13.5621 17.0331 13.4583C16.9137 13.3545 16.7295 13.3026 16.4803 13.3026H15.4683L15.3593 14.6494H16.3869Z" fill="#FFF8E7"/>
</g>
<g filter="url(#filter2_f_1915_109398)">
<path d="M17.3926 9.98659C16.6539 11.4258 14.555 13.4858 11.9919 13.4858C8.1199 13.4858 6.70594 11.318 5.91235 9.27734" stroke="#FFE204" stroke-width="0.245781"/>
</g>
</g>
<defs>
<filter id="filter0_i_1915_109398" x="1.91748" y="3.81396" width="20.1682" height="19.1757" filterUnits="userSpaceOnUse" color-interpolation-filters="sRGB">
<feFlood flood-opacity="0" result="BackgroundImageFix"/>
<feBlend mode="normal" in="SourceGraphic" in2="BackgroundImageFix" result="shape"/>
<feColorMatrix in="SourceAlpha" type="matrix" values="0 0 0 0 0 0 0 0 0 0 0 0 0 0 0 0 0 0 127 0" result="hardAlpha"/>
<feOffset dy="1.96625"/>
<feGaussianBlur stdDeviation="0.983125"/>
<feComposite in2="hardAlpha" operator="arithmetic" k2="-1" k3="1"/>
<feColorMatrix type="matrix" values="0 0 0 0 0 0 0 0 0 0 0 0 0 0 0 0 0 0 0.05 0"/>
<feBlend mode="normal" in2="shape" result="effect1_innerShadow_1915_109398"/>
</filter>
<filter id="filter1_d_1915_109398" x="4.75638" y="11.6745" width="14.778" height="7.56342" filterUnits="userSpaceOnUse" color-interpolation-filters="sRGB">
<feFlood flood-opacity="0" result="BackgroundImageFix"/>
<feColorMatrix in="SourceAlpha" type="matrix" values="0 0 0 0 0 0 0 0 0 0 0 0 0 0 0 0 0 0 127 0" result="hardAlpha"/>
<feOffset dy="0.491562"/>
<feGaussianBlur stdDeviation="0.491562"/>
<feComposite in2="hardAlpha" operator="out"/>
<feColorMatrix type="matrix" values="0 0 0 0 0.533333 0 0 0 0 0.16 0 0 0 0 0 0 0 0 0.25 0"/>
<feBlend mode="normal" in2="BackgroundImageFix" result="effect1_dropShadow_1915_109398"/>
<feBlend mode="normal" in="SourceGraphic" in2="effect1_dropShadow_1915_109398" result="shape"/>
</filter>
<filter id="filter2_f_1915_109398" x="5.30629" y="8.74135" width="12.6872" height="5.35861" filterUnits="userSpaceOnUse" color-interpolation-filters="sRGB">
<feFlood flood-opacity="0" result="BackgroundImageFix"/>
<feBlend mode="normal" in="SourceGraphic" in2="BackgroundImageFix" result="shape"/>
<feGaussianBlur stdDeviation="0.245781" result="effect1_foregroundBlur_1915_109398"/>
</filter>
<linearGradient id="paint0_linear_1915_109398" x1="11.9948" y1="4.49756" x2="11.9948" y2="19.6234" gradientUnits="userSpaceOnUse">
<stop stop-color="#FFD601"/>
<stop offset="1" stop-color="#FFA216"/>
</linearGradient>
<linearGradient id="paint1_linear_1915_109398" x1="11.9997" y1="1.604" x2="11.9997" y2="6.99398" gradientUnits="userSpaceOnUse">
<stop stop-color="#FF8386"/>
<stop offset="1" stop-color="#EA3B41"/>
</linearGradient>
<linearGradient id="paint2_linear_1915_109398" x1="21.4331" y1="5.90283" x2="21.4331" y2="10.5772" gradientUnits="userSpaceOnUse">
<stop stop-color="#FF8386"/>
<stop offset="1" stop-color="#EA3B41"/>
</linearGradient>
<linearGradient id="paint3_linear_1915_109398" x1="2.56667" y1="5.90283" x2="2.56667" y2="10.5772" gradientUnits="userSpaceOnUse">
<stop stop-color="#FF8386"/>
<stop offset="1" stop-color="#EA3B41"/>
</linearGradient>
<clipPath id="clip0_1915_109398">
<rect width="24" height="24" fill="white"/>
</clipPath>
</defs>
</svg>
